# xmcd CD database file
#
# Track frame offsets:
#	150
#	24733
#	41272
#	67938
#	81357
#	99683
#	121445
#	156438
#	180073
#	199542
#
# Disc length: 3052 seconds
#
# Revision: 3
# Processed by: cddbd v1.5.2PL0 Copyright (c) Steve Scherf et al.
# Submitted via: CDex 1.51
#
DISCID=780bea0a
DTITLE=Art Pepper - Meet the rhythm section
DYEAR=1957
DGENRE=Jazz
TTITLE0=you'd be so nice to come home to
TTITLE1=red pepper blues
TTITLE2=imagination
TTITLE3=waltz me blues
TTITLE4=straight life
TTITLE5=jazz me blues
TTITLE6=tin tin deo
TTITLE7=star eyes
TTITLE8=birks works
TTITLE9=the man I love
EXTD=year 1957 YEAR: 1957
EXTT0=
EXTT1=
EXTT2=
EXTT3=
EXTT4=
EXTT5=
EXTT6=
EXTT7=
EXTT8=
EXTT9=
PLAYORDER=
